<svg xmlns="http://www.w3.org/2000/svg" width="90" height="110"><path d="M86.964 88.3c-2.834-3.72-7.139-5.777-11.185-7.111-2.028-.67-4.011-1.162-5.758-1.581-1.022-.243-1.95-.464-2.761-.673 2-.914 6.45-3.308 6.45-6.547-7.317 1.282-10.134-3.737-10.533-8.887a19.8 19.8 0 002.653-6.112 8.979 8.979 0 001.384-.669 8.5 8.5 0 002.864-2.986 26.143 26.143 0 002.285-5.387 10.179 10.179 0 00.565-3.134 5.123 5.123 0 00-.7-2.721 4.479 4.479 0 00-1.441-1.441c3.515-8.635.923-16.813-4.7-22.642C65.467 9.8 60 .309 49.352.009c-11.475-.325-16 7.284-17.115 11.895-11.191 3.91-17.693 12.783-16.244 23.365a18.851 18.851 0 002.161 6.765 4.148 4.148 0 00-.377.455 5.135 5.135 0 00-.7 2.721 10.2 10.2 0 00.566 3.134 20.468 20.468 0 003.135 6.6 7.863 7.863 0 002.014 1.77 8.978 8.978 0 001.384.669 22.971 22.971 0 006.9 11.132v5.855a1.342 1.342 0 01-.411.832 8.915 8.915 0 01-2.654 1.831 25.326 25.326 0 01-3.717 1.46c-1.391.432-3.633.883-6.144 1.514-3.774.956-8.236 2.332-11.866 5.06a15.661 15.661 0 00-4.522 5.2 16.1 16.1 0 00-1.761 7.614q0 1.027.1 2.128a2.507 2.507 0 00.538 1.278 6.729 6.729 0 001.992 1.612 30.733 30.733 0 006.045 2.475C16.395 107.79 29.172 110 45.001 110a140.037 140.037 0 0031.466-3.3 52.961 52.961 0 009.208-2.936 14.089 14.089 0 002.744-1.558 4.977 4.977 0 00.94-.915 2.5 2.5 0 00.537-1.278c.07-.734.1-1.441.1-2.124a15.377 15.377 0 00-3.032-9.589zM27.392 56.009l-.177-.877-.956-.3a6.557 6.557 0 01-1.477-.631 5.274 5.274 0 01-1.772-1.908 23.519 23.519 0 01-2.012-4.79 7.559 7.559 0 01-.431-2.295v-.022a11.485 11.485 0 005.485 3.071c23.828-7.423 30.71-19.949 30.71-19.949s.9 18.151 8.471 21.341a32.4 32.4 0 004.024-5.469 2.756 2.756 0 01.172 1.029 7.619 7.619 0 01-.431 2.295 17.941 17.941 0 01-2.62 5.662 4.489 4.489 0 01-1.157 1.034 6.547 6.547 0 01-1.477.631l-.956.3-.177.877c-1.118 5.487-4.345 8.573-6.728 10.9l-.448.436v7.026a4.1 4.1 0 001.06 2.641 8.421 8.421 0 001.553 1.385l-12.078 16.4-12.849-17.439c.1-.1.227-.194.323-.3a4.124 4.124 0 001.122-2.683v-7.03l-.448-.436c-2.381-2.326-5.608-5.408-6.726-10.899zm3.721 22.929c.079-.049.147-.106.225-.156l14.628 19.859 14.055-19.076c.034.018.065.037.1.053a33.333 33.333 0 004.4 1.754c.129.042.279.08.414.121l4.075 11-8.653-1.783-14.39 10.56L31.58 90.709l-8.653 1.783 4.351-11.746a22.962 22.962 0 003.835-1.808zm55.308 20.685l-.15.156a7.536 7.536 0 01-1.508.936c-2.577 1.3-7.662 2.9-14.487 4.121a145.29 145.29 0 01-25.273 2.1 136.053 136.053 0 01-30.552-3.194 49.293 49.293 0 01-8.521-2.7 10.891 10.891 0 01-2.041-1.136 1.951 1.951 0 01-.306-.28 19.59 19.59 0 01-.085-1.74 12.669 12.669 0 012.446-7.916c2.214-2.942 5.777-4.742 9.489-5.97 1.852-.613 3.725-1.078 5.443-1.482 1.292-.3 2.491-.57 3.557-.851l-5.079 13.7 11.611-2.392 15 11.012 15-11.011 11.611 2.391-4.873-13.145c.995.238 2.051.484 3.158.767 3.61.912 7.6 2.2 10.567 4.431a12.448 12.448 0 013.632 4.147 13.265 13.265 0 011.443 6.318c.003.555-.03 1.135-.082 1.738z" fill="#fff"/></svg>