<svg xmlns="http://www.w3.org/2000/svg" width="90" height="110"><path d="M87.255 87.112c-2.572-3.9-6.551-6.248-10.379-7.813s-7.619-2.409-9.9-3.175a20.464 20.464 0 01-5.175-2.535 7.368 7.368 0 01-1.6-1.468 1.822 1.822 0 01-.449-1.041v-4.8a24.728 24.728 0 007.314-11.967 9.4 9.4 0 001.468-.719 9.058 9.058 0 003.033-3.212 28.339 28.339 0 002.421-5.793 11.1 11.1 0 00.6-3.371 5.588 5.588 0 00-.745-2.927c-.044-.073-.1-.127-.15-.2 1.047-5.572 5.121-32.592-14.51-31.92-4.629-4.491-16.412-10.1-29.457-2.245-14.255 8.588-16.793 28.5-12.754 33.351a4.685 4.685 0 00-.824 1.01 5.589 5.589 0 00-.746 2.927 11.079 11.079 0 00.6 3.371 22.159 22.159 0 003.324 7.1 8.377 8.377 0 002.14 1.914 9.473 9.473 0 001.466.719 24.74 24.74 0 007.313 11.971v4.8a1.844 1.844 0 01-.483 1.047 10.347 10.347 0 01-2.864 2.28 19.716 19.716 0 01-3.84 1.708c-1.54.482-3.758 1.023-6.184 1.785-3.641 1.147-7.816 2.8-11.16 5.768A16.917 16.917 0 00.002 96.916q0 1.136.115 2.354a2.749 2.749 0 00.491 1.283 6.713 6.713 0 001.874 1.709 27.208 27.208 0 005.765 2.68c7.419 2.614 19.973 5.057 36.754 5.057 13.634 0 24.488-1.62 32.051-3.627a45.811 45.811 0 008.865-3.191 13.2 13.2 0 002.6-1.675 5.144 5.144 0 00.879-.962 2.749 2.749 0 00.491-1.283c.076-.811.114-1.592.114-2.348a17.391 17.391 0 00-2.746-9.801zM60.919 77.079c.084.05.178.085.263.134L54.72 91.255l-7.792-8.663 11.352-7.419a15.662 15.662 0 002.639 1.906zM26.342 52.832l-.187-.943-1.013-.322a6.875 6.875 0 01-1.565-.678 5.625 5.625 0 01-1.877-2.052 25.522 25.522 0 01-2.134-5.152 8.237 8.237 0 01-.457-2.467 2.612 2.612 0 01.308-1.373 1.532 1.532 0 01.884-.668h.01c2.979 2.456 6.894 9.663 6.894 9.663l-.839-11.978s18.516-3.742 31.14-14.22c4.208 3.742 6.733 18.711 6.733 18.711l.842 5.239 3.869-7.544a2.569 2.569 0 011.09.279 1.383 1.383 0 01.542.519 2.6 2.6 0 01.307 1.373 8.233 8.233 0 01-.455 2.467 19.468 19.468 0 01-2.775 6.09 4.779 4.779 0 01-1.233 1.114 6.88 6.88 0 01-1.565.678l-1.014.322-.186.943c-1.185 5.9-4.606 9.22-7.131 11.721l-.475.469v6.058a4.4 4.4 0 00.618 2.172l-11.671 7.628-11.691-7.639a4.333 4.333 0 00.634-2.161v-6.059l-.475-.469c-2.525-2.501-5.943-5.82-7.128-11.721zm4.039 23.4a13.974 13.974 0 001.328-1.061l11.364 7.426-7.793 8.663-6.459-14.043c.537-.31 1.063-.638 1.56-.989zm55.82 22.64a3.733 3.733 0 01-.879.734 23.543 23.543 0 01-4.913 2.263c-6.833 2.427-19.032 4.844-35.408 4.841-13.3 0-23.832-1.588-30.991-3.491a42.051 42.051 0 01-8.076-2.888 9.648 9.648 0 01-1.857-1.175 2.034 2.034 0 01-.279-.284 22.9 22.9 0 01-.094-1.962 14.468 14.468 0 012.234-8.157c2.032-3.108 5.262-5.1 8.715-6.514s7.022-2.2 9.633-3.017a23.074 23.074 0 002.167-.827l8.069 17.541 10.479-11.65 10.479 11.65 8.073-17.549c.707.3 1.422.589 2.126.823 1.752.582 3.908 1.12 6.192 1.845 3.426 1.082 7.075 2.576 9.79 4.982s4.614 5.683 4.636 10.879a20.966 20.966 0 01-.096 1.953z" fill="#fff"/></svg>