<svg xmlns="http://www.w3.org/2000/svg" width="90" height="110" viewBox="0 0 90 110"><path d="M159.443,88.3c-2.834-3.72-7.139-5.777-11.185-7.111-2.028-.67-4.011-1.162-5.758-1.581-1.022-.243-1.95-.464-2.761-.673,2-.914,6.45-3.308,6.45-6.547-7.317,1.282-10.134-3.737-10.533-8.887a19.8,19.8,0,0,0,2.653-6.112,8.979,8.979,0,0,0,1.384-.669,8.5,8.5,0,0,0,2.864-2.986,26.143,26.143,0,0,0,2.285-5.387,10.179,10.179,0,0,0,.565-3.134,5.123,5.123,0,0,0-.7-2.721,4.479,4.479,0,0,0-1.441-1.441c3.515-8.635.923-16.813-4.7-22.642-.62-8.609-6.087-18.1-16.735-18.4-11.475-.325-16,7.284-17.115,11.895C93.525,15.814,87.023,24.687,88.472,35.269a18.851,18.851,0,0,0,2.161,6.765,4.148,4.148,0,0,0-.377.455,5.135,5.135,0,0,0-.7,2.721,10.2,10.2,0,0,0,.566,3.134,20.468,20.468,0,0,0,3.135,6.6,7.863,7.863,0,0,0,2.014,1.77,8.978,8.978,0,0,0,1.384.669,22.971,22.971,0,0,0,6.9,11.132V74.37a1.342,1.342,0,0,1-.411.832,8.915,8.915,0,0,1-2.654,1.831,25.326,25.326,0,0,1-3.717,1.46c-1.391.432-3.633.883-6.144,1.514-3.774.956-8.236,2.332-11.866,5.06a15.661,15.661,0,0,0-4.522,5.2,16.1,16.1,0,0,0-1.761,7.614q0,1.027.1,2.128a2.507,2.507,0,0,0,.538,1.278,6.729,6.729,0,0,0,1.992,1.612,30.733,30.733,0,0,0,6.045,2.475C88.874,107.79,101.651,110,117.48,110a140.037,140.037,0,0,0,31.466-3.3,52.961,52.961,0,0,0,9.208-2.936,14.089,14.089,0,0,0,2.744-1.558,4.977,4.977,0,0,0,.94-.915,2.5,2.5,0,0,0,.537-1.278c.07-.734.1-1.441.1-2.124A15.377,15.377,0,0,0,159.443,88.3ZM99.871,56.009l-.177-.877-.956-.3a6.557,6.557,0,0,1-1.477-.631,5.274,5.274,0,0,1-1.772-1.908,23.519,23.519,0,0,1-2.012-4.79,7.559,7.559,0,0,1-.431-2.295v-.022a11.485,11.485,0,0,0,5.485,3.071c23.828-7.423,30.71-19.949,30.71-19.949s.9,18.151,8.471,21.341a32.4,32.4,0,0,0,4.024-5.469,2.756,2.756,0,0,1,.172,1.029,7.619,7.619,0,0,1-.431,2.295,17.941,17.941,0,0,1-2.62,5.662A4.489,4.489,0,0,1,137.7,54.2a6.547,6.547,0,0,1-1.477.631l-.956.3-.177.877c-1.118,5.487-4.345,8.573-6.728,10.9l-.448.436V74.37a4.1,4.1,0,0,0,1.06,2.641,8.421,8.421,0,0,0,1.553,1.385l-12.078,16.4L105.6,77.357c.1-.1.227-.194.323-.3a4.124,4.124,0,0,0,1.122-2.683V67.344l-.448-.436C104.216,64.582,100.989,61.5,99.871,56.009Zm3.721,22.929c.079-.049.147-.106.225-.156l14.628,19.859L132.5,79.565c.034.018.065.037.1.053a33.333,33.333,0,0,0,4.4,1.754c.129.042.279.08.414.121l4.075,11-8.653-1.783L118.446,101.27,104.059,90.709l-8.653,1.783,4.351-11.746A22.962,22.962,0,0,0,103.592,78.938ZM158.9,99.623l-.15.156a7.536,7.536,0,0,1-1.508.936c-2.577,1.3-7.662,2.9-14.487,4.121a145.29,145.29,0,0,1-25.273,2.1,136.053,136.053,0,0,1-30.552-3.194,49.293,49.293,0,0,1-8.521-2.7,10.891,10.891,0,0,1-2.041-1.136,1.951,1.951,0,0,1-.306-.28c-.054-.6-.085-1.187-.085-1.74a12.669,12.669,0,0,1,2.446-7.916C80.637,87.028,84.2,85.228,87.912,84c1.852-.613,3.725-1.078,5.443-1.482,1.292-.3,2.491-.57,3.557-.851l-5.079,13.7,11.611-2.392,15,11.012,15-11.011,11.611,2.391-4.873-13.145c.995.238,2.051.484,3.158.767,3.61.912,7.6,2.2,10.567,4.431a12.448,12.448,0,0,1,3.632,4.147,13.265,13.265,0,0,1,1.443,6.318C158.985,98.44,158.952,99.02,158.9,99.623Z" transform="translate(-72.479 0)" fill="#fff"/></svg>