<svg xmlns="http://www.w3.org/2000/svg" width="90" height="110" viewBox="0 0 90 110"><path d="M156.989,87.113c-2.572-3.9-6.551-6.248-10.379-7.813s-7.619-2.409-9.9-3.175a20.464,20.464,0,0,1-5.175-2.535,7.368,7.368,0,0,1-1.6-1.468,1.822,1.822,0,0,1-.449-1.041v-4.8A24.728,24.728,0,0,0,136.8,54.314a9.4,9.4,0,0,0,1.468-.719,9.058,9.058,0,0,0,3.033-3.212,28.339,28.339,0,0,0,2.421-5.793,11.1,11.1,0,0,0,.6-3.371,5.588,5.588,0,0,0-.745-2.927c-.044-.073-.1-.127-.15-.2,1.047-5.572,5.121-32.592-14.51-31.92-4.629-4.491-16.412-10.1-29.457-2.245-14.255,8.588-16.793,28.5-12.754,33.351a4.685,4.685,0,0,0-.824,1.01,5.589,5.589,0,0,0-.746,2.927,11.079,11.079,0,0,0,.6,3.371,22.159,22.159,0,0,0,3.324,7.1A8.377,8.377,0,0,0,91.2,53.6a9.473,9.473,0,0,0,1.466.719,24.74,24.74,0,0,0,7.313,11.971v4.8a1.844,1.844,0,0,1-.483,1.047,10.347,10.347,0,0,1-2.864,2.28,19.716,19.716,0,0,1-3.84,1.708c-1.54.482-3.758,1.023-6.184,1.785-3.641,1.147-7.816,2.8-11.16,5.768a16.917,16.917,0,0,0-5.712,13.239q0,1.136.115,2.354a2.749,2.749,0,0,0,.491,1.283,6.713,6.713,0,0,0,1.874,1.709,27.208,27.208,0,0,0,5.765,2.68C85.4,107.557,97.954,110,114.735,110c13.634,0,24.488-1.62,32.051-3.627a45.811,45.811,0,0,0,8.865-3.191,13.2,13.2,0,0,0,2.6-1.675,5.144,5.144,0,0,0,.879-.962,2.749,2.749,0,0,0,.491-1.283c.076-.811.114-1.592.114-2.348A17.391,17.391,0,0,0,156.989,87.113ZM130.653,77.08c.084.05.178.085.263.134l-6.462,14.042-7.792-8.663,11.352-7.419A15.662,15.662,0,0,0,130.653,77.08ZM96.076,52.833l-.187-.943-1.013-.322a6.875,6.875,0,0,1-1.565-.678,5.625,5.625,0,0,1-1.877-2.052A25.522,25.522,0,0,1,89.3,43.686a8.237,8.237,0,0,1-.457-2.467,2.612,2.612,0,0,1,.308-1.373,1.532,1.532,0,0,1,.884-.668l.01,0c2.979,2.456,6.894,9.663,6.894,9.663L96.1,36.863s18.516-3.742,31.14-14.22c4.208,3.742,6.733,18.711,6.733,18.711l.842,5.239,3.869-7.544a2.569,2.569,0,0,1,1.09.279,1.383,1.383,0,0,1,.542.519,2.6,2.6,0,0,1,.307,1.373,8.233,8.233,0,0,1-.455,2.467,19.468,19.468,0,0,1-2.775,6.09,4.779,4.779,0,0,1-1.233,1.114,6.88,6.88,0,0,1-1.565.678l-1.014.322-.186.943c-1.185,5.9-4.606,9.22-7.131,11.721l-.475.469v6.058a4.4,4.4,0,0,0,.618,2.172l-11.671,7.628-11.691-7.639a4.333,4.333,0,0,0,.634-2.161V65.023l-.475-.469C100.679,62.053,97.261,58.734,96.076,52.833Zm4.039,23.4a13.974,13.974,0,0,0,1.328-1.061l11.364,7.426-7.793,8.663L98.555,77.218C99.092,76.908,99.618,76.58,100.115,76.229Zm55.82,22.64a3.733,3.733,0,0,1-.879.734,23.543,23.543,0,0,1-4.913,2.263c-6.833,2.427-19.032,4.844-35.408,4.841-13.3,0-23.832-1.588-30.991-3.491a42.051,42.051,0,0,1-8.076-2.888,9.648,9.648,0,0,1-1.857-1.175,2.034,2.034,0,0,1-.279-.284c-.059-.681-.094-1.339-.094-1.962a14.468,14.468,0,0,1,2.234-8.157c2.032-3.108,5.262-5.1,8.715-6.514s7.022-2.2,9.633-3.017a23.074,23.074,0,0,0,2.167-.827l8.069,17.541,10.479-11.65,10.479,11.65,8.073-17.549c.707.3,1.422.589,2.126.823,1.752.582,3.908,1.12,6.192,1.845,3.426,1.082,7.075,2.576,9.79,4.982s4.614,5.683,4.636,10.879C156.03,97.534,156,98.189,155.935,98.87Z" transform="translate(-69.734 -0.001)" fill="#fff"/></svg>