<svg xmlns="http://www.w3.org/2000/svg" width="90" height="110" viewBox="0 0 90 110"><g transform="translate(925.571 538)"><path d="M144.636,92.329a17.169,17.169,0,0,0-1.868-4.347,18.012,18.012,0,0,0-5.206-5.415,29.326,29.326,0,0,0-4.75-2.632c-2.454-1.1-4.964-1.947-7.278-2.766a39.388,39.388,0,0,1-6.079-2.548,12.659,12.659,0,0,1-1.616-1.064,6.809,6.809,0,0,1-1.637-1.826,5.673,5.673,0,0,1-.764-2.357,17.346,17.346,0,0,1-.105-1.9,21.912,21.912,0,0,1,.621-4.884,21.132,21.132,0,0,0,2.882-4.052,43,43,0,0,0,2.6-5.693,11.98,11.98,0,0,0,1.634-.866,11.516,11.516,0,0,0,3.351-3.35A17,17,0,0,0,128.7,43.1a8.021,8.021,0,0,0,.217-1.85,8.147,8.147,0,0,0-.841-3.575,9.563,9.563,0,0,0-1.374-2.068c.277-.977.613-2.3.912-3.837a39.491,39.491,0,0,0,.757-7.419,26.122,26.122,0,0,0-.512-5.324,18.743,18.743,0,0,0-1.262-3.924,14.618,14.618,0,0,0-3.867-5.176,16.243,16.243,0,0,0-6.086-3.165,21.873,21.873,0,0,0-3.208-3.031A17.466,17.466,0,0,0,107.625.783,21.653,21.653,0,0,0,101.594,0c-1.062,0-2.121.057-3.187.148-1,.087-1.823.185-2.563.306a18.147,18.147,0,0,0-2.9.7c-.887.292-1.739.634-2.857,1.054-.424.161-.978.4-1.651.722a29.326,29.326,0,0,0-4.3,2.558,26.87,26.87,0,0,0-7.186,7.486,22.691,22.691,0,0,0-2.563,5.616,23.96,23.96,0,0,0-1,6.935,29.253,29.253,0,0,0,.449,4.978c0,.121.007.242.014.356.014.215.039.443.063.678.039.346.081.7.112,1.007.018.148.032.282.042.39a1.263,1.263,0,0,0,.007.128v.245l.445,1.9A9.932,9.932,0,0,0,72.9,37.45a8.151,8.151,0,0,0-.954,3.8,8.007,8.007,0,0,0,.214,1.846,18.631,18.631,0,0,0,1.374,3.944,12.366,12.366,0,0,0,3.057,4.042,11.235,11.235,0,0,0,2.833,1.762,42.879,42.879,0,0,0,2.6,5.69A20.934,20.934,0,0,0,84.9,62.587a22.1,22.1,0,0,1,.621,4.888,17.266,17.266,0,0,1-.1,1.9,5.749,5.749,0,0,1-1.851,3.7,11.486,11.486,0,0,1-2.394,1.675,28.913,28.913,0,0,1-3.316,1.491c-2.142.829-4.578,1.615-7.053,2.555a40.792,40.792,0,0,0-5.525,2.531A22.419,22.419,0,0,0,61.459,84a16.763,16.763,0,0,0-4.375,5.915,21.033,21.033,0,0,0-1.655,8.627,3.539,3.539,0,0,0,.277,1.346,4.781,4.781,0,0,0,.638,1.091,8.675,8.675,0,0,0,1.893,1.756,23.245,23.245,0,0,0,5.493,2.7,71.133,71.133,0,0,0,14.25,3.223A168.306,168.306,0,0,0,100.431,110a175.658,175.658,0,0,0,19.954-1.031,95.356,95.356,0,0,0,10.822-1.813,53.154,53.154,0,0,0,5.967-1.742,29.036,29.036,0,0,0,3.369-1.437,17.363,17.363,0,0,0,1.942-1.148,8.758,8.758,0,0,0,2.061-1.893,4.965,4.965,0,0,0,.634-1.111,3.574,3.574,0,0,0,.249-1.282A23.037,23.037,0,0,0,144.636,92.329ZM96.511,93.95,83.267,77.736a16.219,16.219,0,0,0,1.96-1.276,11.285,11.285,0,0,0,1.8-1.705l9.63,4.28L94.6,82.318l3.183,3.233ZM88.389,72.59a9.246,9.246,0,0,0,.761-2.847,20.63,20.63,0,0,0,.126-2.269,26.9,26.9,0,0,0-.81-6.123l-.116-.487-.358-.363a16.973,16.973,0,0,1-2.664-3.662,42.663,42.663,0,0,1-2.654-5.949l-.295-.8-.827-.292a7.564,7.564,0,0,1-3.947-3.1,13.537,13.537,0,0,1-1.788-4.4,4.6,4.6,0,0,1,.438-3.256,6.307,6.307,0,0,1,1.234-1.618,25.518,25.518,0,0,0,1.833,2.481c.841.809.578.561.859.161,0,0,.957-1.289,6.019-10.719,10.128,2.155,27.824-12.411,27.824-12.411a17.4,17.4,0,0,0,3.59,9.013c3.2,4.089,5.027,13.686,5.027,13.686s.435-.789,1.083-1.85a6.007,6.007,0,0,1,.947,1.39,4.588,4.588,0,0,1,.368,3.119,15.224,15.224,0,0,1-1.115,3.213,8.721,8.721,0,0,1-2.156,2.884,7.59,7.59,0,0,1-2.461,1.4l-.827.289-.295.8a42.4,42.4,0,0,1-2.654,5.952,16.84,16.84,0,0,1-2.668,3.666l-.358.363-.112.49a26.59,26.59,0,0,0-.813,6.116,21.516,21.516,0,0,0,.123,2.269,9.383,9.383,0,0,0,.659,2.612,1.035,1.035,0,0,0,.049.107l-11.4,5.74Zm16.876,21.948L103.9,85.551l3.187-3.233-2.061-3.3,8.711-4.384a9.491,9.491,0,0,0,.768.849,14.2,14.2,0,0,0,2.931,2.162Z" transform="translate(-981 -538)" fill="#fff"/></g></svg>